<?xml version="1.0" standalone="no"?>
<!DOCTYPE svg PUBLIC "-//W3C//DTD SVG 20010904//EN"
 "http://www.w3.org/TR/2001/REC-SVG-20010904/DTD/svg10.dtd">
<svg version="1.0" xmlns="http://www.w3.org/2000/svg"
 width="700.000000pt" height="700.000000pt" viewBox="0 0 700.000000 700.000000"
 preserveAspectRatio="xMidYMid meet">
<metadata>
Created by potrace 1.14, written by Peter Selinger 2001-2017
</metadata>
<g transform="translate(0.000000,700.000000) scale(0.100000,-0.100000)"
fill="#000000" stroke="none">
<path d="M3288 5138 c-1 -7 -2 -35 -4 -63 -1 -27 -3 -53 -3 -57 -1 -5 -27 -8
-60 -8 -72 0 -84 -12 -82 -80 5 -162 1 -201 -23 -210 -11 -4 -25 -6 -31 -4 -5
2 -24 6 -42 8 -44 5 -51 -17 -49 -157 1 -78 -3 -122 -10 -128 -6 -5 -34 -9
-61 -8 -28 1 -55 -1 -60 -4 -7 -4 -12 -59 -12 -139 -1 -73 -4 -135 -7 -138 -3
-3 -192 -5 -420 -6 -257 0 -418 -4 -424 -10 -5 -5 -10 -38 -11 -72 l-2 -62
-51 -1 c-28 -1 -59 -1 -68 0 -10 1 -18 -4 -19 -11 -1 -23 1 -383 3 -399 1 -13
14 -16 67 -16 l66 0 0 -66 c0 -77 1 -78 90 -79 54 -2 55 -2 56 -32 1 -17 1
-35 -1 -41 -1 -5 1 -23 4 -40 6 -30 6 -30 73 -31 l68 -1 0 -59 c0 -32 4 -64 7
-70 4 -6 34 -10 68 -10 64 2 71 -4 69 -59 0 -11 0 -111 0 -223 1 -112 -1 -207
-4 -212 -3 -5 -1 -11 5 -15 6 -4 7 -12 3 -18 -4 -7 -6 -22 -4 -34 1 -14 -3
-23 -11 -24 -7 0 -25 -2 -40 -3 -16 -1 -28 2 -28 7 0 6 -5 6 -12 0 -7 -5 -22
-8 -33 -8 -20 2 -20 -4 -20 -346 0 -191 4 -351 8 -356 5 -4 36 -8 70 -9 l62 0
3 -63 c3 -58 20 -99 35 -84 4 3 60 6 126 5 135 0 128 -4 126 86 0 29 4 53 10
53 38 5 83 4 97 -3 9 -5 19 -4 22 0 3 5 37 7 76 7 45 -1 73 2 76 9 2 6 5 38 6
71 l3 60 130 0 c72 0 135 4 142 8 7 4 11 32 11 70 l-1 62 216 3 217 2 0 -69
c0 -82 -10 -77 165 -76 l121 0 1 -64 c1 -35 7 -67 13 -71 6 -4 64 -6 128 -5
64 0 124 -2 133 -7 12 -5 16 -20 14 -62 -3 -61 11 -82 45 -73 11 3 23 1 26 -4
3 -5 10 -6 16 -3 6 4 50 7 97 6 55 0 89 4 93 11 4 7 8 39 8 72 l0 61 68 -1 67
0 3 356 2 356 -37 0 c-21 0 -53 1 -70 2 l-33 1 0 293 0 292 70 -2 c68 -2 70
-1 71 23 1 39 6 103 7 112 1 4 31 6 67 6 53 -1 65 2 70 16 3 10 5 22 4 26 -1
5 -1 30 0 56 l1 47 38 -1 c102 -3 103 -2 102 45 -1 107 -7 97 55 98 77 2 77 2
84 21 7 21 4 376 -4 396 -3 7 -9 11 -14 7 -5 -3 -12 -1 -16 4 -3 6 -15 7 -28
2 -26 -10 -56 -6 -70 8 -5 5 -9 36 -8 69 1 40 -3 61 -11 64 -7 2 -199 3 -426
3 -257 -1 -415 2 -419 8 -3 5 -6 67 -7 138 -1 70 -4 131 -8 135 -4 4 -35 6
-68 5 -33 -1 -61 2 -61 6 -1 4 -2 69 -4 143 -3 162 -2 153 -17 143 -7 -4 -26
-6 -43 -4 -16 2 -41 4 -55 5 l-25 1 -3 137 c-3 154 2 146 -85 146 -26 0 -51 3
-55 7 -4 4 -8 30 -8 58 -1 29 -2 58 -3 65 -1 9 -49 12 -206 12 -156 0 -205 -3
-207 -12z"/>
</g>
</svg>
